<svg width="27" height="27" viewBox="0 0 27 27" fill="none" xmlns="http://www.w3.org/2000/svg">
<g clip-path="url(#clip0)">
<path d="M19.5776 12.1409L18.6998 11.2532C18.4241 10.9748 18.0562 10.8203 17.6635 10.8203C17.2711 10.8203 16.8978 10.9724 16.622 11.2505L15.5063 12.369V2.5234C15.5058 1.70901 14.8485 1.15759 14.0405 1.15759H12.8099C12.0021 1.15759 11.3193 1.70923 11.3193 2.52362V12.4328L10.1602 11.2519C9.884 10.9737 9.52289 10.8205 9.1302 10.8205C8.73773 10.8205 8.37291 10.9737 8.09696 11.2519L7.22076 12.1365C6.94524 12.4146 6.79409 12.7854 6.79409 13.1807C6.79409 13.5763 6.94633 13.947 7.22206 14.2249L12.3595 19.4533C12.635 19.7312 13.0027 19.9349 13.3986 19.9349H13.4032C13.7954 19.9349 14.1633 19.731 14.4388 19.4533L19.5776 14.2489C19.8535 13.9705 20.0051 13.5868 20.0055 13.1917C20.0055 12.7961 19.8535 12.419 19.5776 12.1409Z" fill="#1565C0"/>
<path d="M26.7887 17.1131C26.7887 16.2987 26.1525 15.7152 25.3444 15.7152H24.0816C23.2736 15.7152 22.6161 16.3779 22.6161 17.1921L22.6174 21.623H4.2073L4.19358 17.1921C4.19358 16.3779 3.53604 15.7152 2.72801 15.7152H1.48634C0.678525 15.7152 0.0148926 16.2723 0.0148926 17.0865V23.6271C0.0148926 24.7905 0.960138 25.8424 2.11447 25.8424H24.7109C25.865 25.8424 26.8041 24.8432 26.8041 23.6793L26.7887 17.1131Z" fill="#1565C0"/>
</g>
<defs>
<clipPath id="clip0">
<rect x="0.0148926" width="26.7892" height="27" fill="white"/>
</clipPath>
</defs>
</svg>
