<svg width="36" height="33" viewBox="0 0 36 33" fill="none" xmlns="http://www.w3.org/2000/svg">
<path d="M32.3567 9.16669H7.7586C6.41694 9.16669 5.27163 10.309 4.95231 11.9534C4.95088 11.9597 4.94878 11.9668 4.94736 11.9731L0.711774 30.0933C0.665856 30.2912 0.673588 30.5033 0.73436 30.6949C1.17808 32.095 2.2308 33 3.41775 33H28.0159C29.3116 33 30.4386 31.9132 30.7926 30.3404C30.7989 30.3207 30.8046 30.301 30.8095 30.2804L35.108 13.9666C35.1221 13.9147 35.1313 13.861 35.1377 13.8073C35.2132 13.468 35.2506 13.1484 35.2506 12.8333C35.2506 10.8111 33.9528 9.16669 32.3567 9.16669Z" fill="#5C5C5C" fill-opacity="0.63"/>
<path d="M1.14339 19.0262C1.17873 19.0334 1.21332 19.0361 1.24798 19.0361C1.56378 19.0361 1.84925 18.7738 1.94109 18.38L3.55338 11.4817C3.55548 11.4709 3.55765 11.4611 3.55975 11.4503C4.05434 9.02619 5.78037 7.33339 7.75857 7.33339H30.0534C30.2887 7.33339 30.5092 7.18833 30.6448 6.94487C30.7798 6.70227 30.8137 6.39074 30.7352 6.10964C30.3254 4.6487 29.2325 3.6667 28.0158 3.6667H14.5694L11.8874 0.268555C11.7517 0.0966797 11.5681 0 11.3759 0H3.41772C1.82165 0 0.523804 1.64441 0.523804 3.6667V18.1194C0.523804 18.575 0.788053 18.9608 1.14339 19.0262Z" fill="#5C5C5C" fill-opacity="0.63"/>
</svg>
