<svg width="26" height="27" viewBox="0 0 26 27" fill="none" xmlns="http://www.w3.org/2000/svg">
<path d="M2.27994 0H17.3338L25.313 7.57015V25.3125C25.313 26.2448 24.5193 27 23.5413 27H2.27994C1.30189 27 0.508179 26.2448 0.508179 25.3125V1.68748C0.508179 0.755173 1.30198 0 2.27994 0Z" fill="#E2574C"/>
<path d="M25.2875 7.59372H19.1119C18.1339 7.59372 17.3401 6.83776 17.3401 5.90624V0.0168533L25.2875 7.59372Z" fill="#B53629"/>
<path d="M18.6671 12.7938C18.9639 12.7938 19.1092 12.5474 19.1092 12.3086C19.1092 12.0614 18.9577 11.8226 18.6671 11.8226H16.9769C16.6464 11.8226 16.4622 12.0833 16.4622 12.3711V16.3274C16.4622 16.6801 16.673 16.8758 16.9583 16.8758C17.2418 16.8758 17.4535 16.6801 17.4535 16.3274V15.2415H18.4758C18.793 15.2415 18.9516 14.9943 18.9516 14.7488C18.9516 14.5083 18.793 14.2695 18.4758 14.2695H17.4535V12.7938H18.6671ZM12.954 11.8226H11.7173C11.3815 11.8226 11.1432 12.042 11.1432 12.3677V16.3308C11.1432 16.7349 11.486 16.8615 11.7314 16.8615H13.0293C14.5654 16.8615 15.5797 15.8988 15.5797 14.4129C15.5789 12.8419 14.624 11.8226 12.954 11.8226ZM13.0134 15.8845H12.2595V12.7997H12.939C13.9675 12.7997 14.4149 13.457 14.4149 14.364C14.4149 15.2129 13.9754 15.8845 13.0134 15.8845ZM8.48296 11.8226H7.25779C6.9114 11.8226 6.71826 12.0403 6.71826 12.3711V16.3274C6.71826 16.6801 6.93972 16.8758 7.23735 16.8758C7.53498 16.8758 7.75644 16.6801 7.75644 16.3274V15.1723H8.52449C9.47238 15.1723 10.2546 14.5327 10.2546 13.5042C10.2547 12.4976 9.49997 11.8226 8.48296 11.8226ZM8.46262 14.2442H7.75653V12.7516H8.46262C8.89847 12.7516 9.17576 13.0756 9.17576 13.4983C9.17484 13.9203 8.89847 14.2442 8.46262 14.2442Z" fill="white"/>
</svg>
