<svg width="26" height="27" viewBox="0 0 26 27" fill="none" xmlns="http://www.w3.org/2000/svg">
<g clip-path="url(#clip0)">
<path d="M14.7834 0.686277C14.6608 0.577855 14.4993 0.536406 14.3452 0.573794L0.909246 3.94879C0.672776 4.00796 0.505925 4.2382 0.508202 4.50229V23.6273C0.508299 23.9049 0.694383 24.1409 0.946404 24.1831L14.3823 26.4331C14.6644 26.4803 14.9283 26.2697 14.9717 25.9627C14.9756 25.9344 14.9777 25.9059 14.9777 25.8774V1.12729C14.9781 0.95575 14.9066 0.79338 14.7834 0.686277Z" fill="#1565C0"/>
<path d="M24.7963 24.1898H14.4609C14.1755 24.1898 13.9442 23.9379 13.9442 23.6272C13.9442 23.3166 14.1755 23.0647 14.4609 23.0647H24.2795V3.93977H14.4609C14.1755 3.93977 13.9442 3.68791 13.9442 3.37725C13.9442 3.0666 14.1755 2.81479 14.4609 2.81479H24.7963C25.0817 2.81479 25.3131 3.06665 25.3131 3.37731V23.6273C25.3131 23.938 25.0817 24.1898 24.7963 24.1898Z" fill="#1565C0"/>
<path d="M9.29326 18.5648C9.06299 18.5646 8.86073 18.3984 8.79717 18.1576L7.22618 12.1748L5.65519 18.1576C5.54172 18.4561 5.2274 18.598 4.95309 18.4745C4.82122 18.4151 4.71648 18.3011 4.66193 18.1576L2.59489 10.2826C2.50836 9.98652 2.65874 9.67022 2.93072 9.57604C3.20271 9.48185 3.49329 9.64554 3.57982 9.94159C3.58287 9.95203 3.58563 9.96258 3.58815 9.97318L5.15909 15.9548L6.73008 9.97207C6.84354 9.67354 7.15787 9.53163 7.43217 9.65514C7.56405 9.71452 7.66879 9.82853 7.72334 9.97207L9.29326 15.9548L10.8643 9.97323C10.9386 9.67718 11.2194 9.50279 11.4914 9.58373C11.4953 9.58489 11.4991 9.58611 11.503 9.58732C11.7772 9.67286 11.9359 9.98404 11.8575 10.2826L9.79038 18.1576C9.72672 18.3989 9.52387 18.565 9.29326 18.5648Z" fill="#FAFAFA"/>
<path d="M22.7292 7.31479H14.4609C14.1755 7.31479 13.9441 7.06293 13.9441 6.75227C13.9441 6.44161 14.1755 6.18975 14.4609 6.18975H22.7292C23.0146 6.18975 23.246 6.44161 23.246 6.75227C23.246 7.06298 23.0146 7.31479 22.7292 7.31479Z" fill="#1565C0"/>
<path d="M22.7292 10.6898H14.4609C14.1755 10.6898 13.9441 10.4379 13.9441 10.1273C13.9441 9.81661 14.1755 9.56475 14.4609 9.56475H22.7292C23.0146 9.56475 23.246 9.81661 23.246 10.1273C23.246 10.4379 23.0146 10.6898 22.7292 10.6898Z" fill="#1565C0"/>
<path d="M22.7292 14.0648H14.4609C14.1755 14.0648 13.9441 13.8129 13.9441 13.5023C13.9441 13.1916 14.1755 12.9397 14.4609 12.9397H22.7292C23.0146 12.9397 23.246 13.1916 23.246 13.5023C23.246 13.813 23.0146 14.0648 22.7292 14.0648Z" fill="#1565C0"/>
<path d="M22.7292 17.4398H14.4609C14.1755 17.4398 13.9441 17.1879 13.9441 16.8773C13.9441 16.5666 14.1755 16.3147 14.4609 16.3147H22.7292C23.0146 16.3147 23.246 16.5666 23.246 16.8773C23.246 17.188 23.0146 17.4398 22.7292 17.4398Z" fill="#1565C0"/>
<path d="M22.7292 20.8148H14.4609C14.1755 20.8148 13.9441 20.5629 13.9441 20.2523C13.9441 19.9416 14.1755 19.6897 14.4609 19.6897H22.7292C23.0146 19.6897 23.246 19.9416 23.246 20.2523C23.246 20.563 23.0146 20.8148 22.7292 20.8148Z" fill="#1565C0"/>
</g>
<defs>
<clipPath id="clip0">
<rect x="0.508179" width="24.8048" height="27" fill="white"/>
</clipPath>
</defs>
</svg>
