<svg height="464pt" viewBox="0 -24 464 464" width="464pt" xmlns="http://www.w3.org/2000/svg"><path d="m432 48h-336c-17.671875 0-32 14.328125-32 32v208c0 17.671875 14.328125 32 32 32h224l80 96v-96h32c17.671875 0 32-14.328125 32-32v-208c0-17.671875-14.328125-32-32-32zm0 0" fill="#46f8ff"/><path d="m464 80v208c0 17.671875-14.328125 32-32 32h-32v96l-80-96h-224c-17.671875 0-32-14.328125-32-32v-208c0-17.671875 14.328125-32 32-32h336c17.671875 0 32 14.328125 32 32zm0 0" fill="#46f8ff"/><path d="m416 48v192c0 26.507812-21.492188 48-48 48h-216.480469l-26.71875 32h-28.800781c-17.671875 0-32-14.328125-32-32v-208c0-17.671875 14.328125-32 32-32zm0 0" fill="#00e7f0"/><path d="m368 0h-336c-17.671875 0-32 14.328125-32 32v208c0 17.671875 14.328125 32 32 32h32v96l80-96h224c17.671875 0 32-14.328125 32-32v-208c0-17.671875-14.328125-32-32-32zm0 0" fill="#ffd422"/><g fill="#ddb200"><path d="m56 56h16v16h-16zm0 0"/><path d="m88 56h16v16h-16zm0 0"/><path d="m120 56h224v16h-224zm0 0"/><path d="m56 104h224v16h-224zm0 0"/><path d="m296 104h16v16h-16zm0 0"/><path d="m328 104h16v16h-16zm0 0"/><path d="m56 152h288v16h-288zm0 0"/><path d="m56 200h144v16h-144zm0 0"/><path d="m216 200h16v16h-16zm0 0"/><path d="m248 200h16v16h-16zm0 0"/><path d="m280 200h64v16h-64zm0 0"/></g></svg>