<?xml version="1.0" encoding="iso-8859-1"?>
<!-- Generator: Adobe Illustrator 19.0.0, SVG Export Plug-In . SVG Version: 6.00 Build 0)  -->
<svg version="1.1" id="Capa_1" xmlns="http://www.w3.org/2000/svg" xmlns:xlink="http://www.w3.org/1999/xlink" x="0px" y="0px"
	 viewBox="0 0 512 512" style="enable-background:new 0 0 512 512;" xml:space="preserve">
<g>
	<g>
		<path d="M317,31.022H45c-24.901,0-45,20.099-45,45v180c0,24.899,20.099,45,45,45h15v45c0,10.837,11.221,18.685,22.2,13.2
			c0.3-0.3,0.901-0.3,1.201-0.601c82.516-55.335,64.023-42.997,82.5-55.2c2.399-1.5,5.099-2.399,8.099-2.399h143
			c24.901,0,45-20.101,45-45v-180C362,51.121,341.901,31.022,317,31.022z M197,211.022H75c-19.773,0-19.854-30,0-30h122
			C216.773,181.022,216.854,211.022,197,211.022z M287,151.022H75c-19.773,0-19.854-30,0-30h212
			C306.773,121.022,306.854,151.022,287,151.022z"/>
	</g>
</g>
<g>
	<g>
		<path d="M467,151.022h-75v105c0,41.4-33.6,75-75,75H178.5l-28.5,18.9v26.1c0,24.899,20.099,45,45,45h147.499l86.1,57.599
			c11.752,6.525,23.401-1.41,23.401-12.599v-45h15c24.901,0,45-20.101,45-45v-180C512,171.122,491.901,151.022,467,151.022z"/>
	</g>
</g>
<g>
</g>
<g>
</g>
<g>
</g>
<g>
</g>
<g>
</g>
<g>
</g>
<g>
</g>
<g>
</g>
<g>
</g>
<g>
</g>
<g>
</g>
<g>
</g>
<g>
</g>
<g>
</g>
<g>
</g>
</svg>
