<svg height="480pt" viewBox="0 -24 480 480" width="480pt" xmlns="http://www.w3.org/2000/svg"><path d="m440 48h-24v-8c-.027344-22.082031-17.917969-39.9726562-40-40h-336c-22.082031.0273438-39.9726562 17.917969-40 40v208c.0273438 22.082031 17.917969 39.972656 40 40h24v88c0 3.367188 2.109375 6.371094 5.277344 7.519531 3.164062 1.144531 6.710937.1875 8.867187-2.398437l37.597657-45.121094h208.503906l77.601562 93.121094c1.519532 1.824218 3.777344 2.878906 6.152344 2.878906.929688-.003906 1.851562-.164062 2.726562-.480469 3.164063-1.148437 5.273438-4.152343 5.273438-7.519531v-88h24c22.082031-.027344 39.972656-17.917969 40-40v-208c-.027344-22.082031-17.917969-39.972656-40-40zm-368 224h-32c-13.253906 0-24-10.746094-24-24v-208c0-13.253906 10.746094-24 24-24h336c13.253906 0 24 10.746094 24 24v208c0 13.253906-10.746094 24-24 24h-224c-2.375 0-4.625 1.054688-6.144531 2.878906l-65.855469 79.023438v-73.902344c0-4.417969-3.582031-8-8-8zm392 24c0 13.253906-10.746094 24-24 24h-32c-4.417969 0-8 3.582031-8 8v73.902344l-65.847656-79.023438c-1.519532-1.824218-3.777344-2.878906-6.152344-2.878906h-198.921875l26.664063-32h220.257812c22.082031-.027344 39.972656-17.917969 40-40v-184h24c13.253906 0 24 10.746094 24 24zm0 0"/><path d="m64 64h16v16h-16zm0 0"/><path d="m96 64h16v16h-16zm0 0"/><path d="m128 64h224v16h-224zm0 0"/><path d="m64 112h224v16h-224zm0 0"/><path d="m304 112h16v16h-16zm0 0"/><path d="m336 112h16v16h-16zm0 0"/><path d="m64 160h288v16h-288zm0 0"/><path d="m64 208h144v16h-144zm0 0"/><path d="m224 208h16v16h-16zm0 0"/><path d="m256 208h16v16h-16zm0 0"/><path d="m288 208h64v16h-64zm0 0"/></svg>