<?xml version="1.0"?>
<svg xmlns="http://www.w3.org/2000/svg" viewBox="0 0 64 64" width="512" height="512"><g id="Homepage"><path d="M28,56H16a3,3,0,0,1-3-3V41a3,3,0,0,1,3-3H28a3,3,0,0,1,3,3V53A3,3,0,0,1,28,56ZM16,40a1,1,0,0,0-1,1V53a1,1,0,0,0,1,1H28a1,1,0,0,0,1-1V41a1,1,0,0,0-1-1Z"/><path d="M48,36H36a3,3,0,0,1-3-3V21a3,3,0,0,1,3-3H48a3,3,0,0,1,3,3V33A3,3,0,0,1,48,36ZM36,20a1,1,0,0,0-1,1V33a1,1,0,0,0,1,1H48a1,1,0,0,0,1-1V21a1,1,0,0,0-1-1Z"/><path d="M28,36H16a3,3,0,0,1-3-3V21a3,3,0,0,1,3-3H28a3,3,0,0,1,3,3V33A3,3,0,0,1,28,36ZM16,20a1,1,0,0,0-1,1V33a1,1,0,0,0,1,1H28a1,1,0,0,0,1-1V21a1,1,0,0,0-1-1Z"/><path d="M59.13,20.161a2.873,2.873,0,0,1-1.018-.187l-.059-.025L32,8.1,5.947,19.949a2.869,2.869,0,1,1-2.094-5.342L31.589,2.088a1,1,0,0,1,.822,0L60.2,14.631a2.869,2.869,0,0,1-1.074,5.53Zm-.284-2.048A.87.87,0,0,0,60,17.291a.874.874,0,0,0-.562-.813L32,4.1,4.618,16.454A.9.9,0,0,0,4,17.291a.869.869,0,0,0,1.178.813L31.586,6.09a1,1,0,0,1,.828,0Z"/><path d="M44,56H40a1,1,0,0,1-1-1V50H34a1,1,0,0,1-1-1V45a1,1,0,0,1,1-1h5V39a1,1,0,0,1,1-1h4a1,1,0,0,1,1,1v5h5a1,1,0,0,1,1,1v4a1,1,0,0,1-1,1H45v5A1,1,0,0,1,44,56Zm-3-2h2V49a1,1,0,0,1,1-1h5V46H44a1,1,0,0,1-1-1V40H41v5a1,1,0,0,1-1,1H35v2h5a1,1,0,0,1,1,1Z"/><path d="M52,62H12a5.006,5.006,0,0,1-5-5V22a1,1,0,0,1,2,0V57a3,3,0,0,0,3,3H52a3,3,0,0,0,3-3V22a1,1,0,0,1,2,0V57A5.006,5.006,0,0,1,52,62Z"/></g></svg>
