<svg height="512" viewBox="0 0 64 64" width="512" xmlns="http://www.w3.org/2000/svg"><path d="m52 61h-40a4 4 0 0 1 -4-4v-39l24-11 24 11v39a4 4 0 0 1 -4 4z" fill="#d1e7f8"/><path d="m8 33v24a4 4 0 0 0 4 4h25c-16.029 0-29-12.523-29-28z" fill="#9bc9ff"/><rect fill="#ffcd00" height="16" rx="2" width="16" x="34" y="19"/><rect fill="#ff3051" height="16" rx="2" width="16" x="14" y="19"/><path d="m59.793 15.542-27.793-12.542-27.793 12.542a1.87 1.87 0 1 0 1.326 3.5l26.467-12.042 26.467 12.039a1.87 1.87 0 1 0 1.326-3.5z" fill="#3d9ae2"/><path d="m34 49h6v6h4v-6h6v-4h-6v-6h-4v6h-6z" fill="#006df0"/><rect fill="#7ed63e" height="16" rx="2" width="16" x="14" y="39"/><path d="m16 55h3.062a28.624 28.624 0 0 1 -5.062-4.944v2.944a2 2 0 0 0 2 2z" fill="#5eac24"/></svg>