<?xml version="1.0" encoding="iso-8859-1"?>
<!-- Generator: Adobe Illustrator 19.0.0, SVG Export Plug-In . SVG Version: 6.00 Build 0)  -->
<svg version="1.1" id="Capa_1" xmlns="http://www.w3.org/2000/svg" xmlns:xlink="http://www.w3.org/1999/xlink" x="0px" y="0px"
	 viewBox="0 0 480 480" style="enable-background:new 0 0 480 480;" xml:space="preserve">
<g>
	<g>
		<g>
			<path d="M416.992,69.816l-62.64-62.768c-4.513-4.497-10.62-7.03-16.992-7.048H80C66.745,0,56,10.745,56,24v432
				c0,13.255,10.745,24,24,24h320c13.255,0,24-10.745,24-24V86.768C424.014,80.41,421.492,74.308,416.992,69.816z M408,456
				c0,4.418-3.582,8-8,8H80c-4.418,0-8-3.582-8-8V24c0-4.418,3.582-8,8-8h256v56c0,13.255,10.745,24,24,24h32V80h-32
				c-4.418,0-8-3.582-8-8V27.344l53.664,53.768c1.497,1.501,2.338,3.536,2.336,5.656V456z"/>
			<rect x="104" y="48" width="16" height="16"/>
			<rect x="136" y="48" width="160" height="16"/>
			<rect x="104" y="80" width="192" height="16"/>
			<path d="M368,128H112c-4.418,0-8,3.582-8,8v64c0,4.418,3.582,8,8,8h256c4.418,0,8-3.582,8-8v-64C376,131.582,372.418,128,368,128
				z M360,192H120v-48h240V192z"/>
			<path d="M176,224h-64c-4.418,0-8,3.582-8,8v64c0,4.418,3.582,8,8,8h64c4.418,0,8-3.582,8-8v-64C184,227.582,180.418,224,176,224z
				 M168,288h-48v-48h48V288z"/>
			<path d="M272,224h-64c-4.418,0-8,3.582-8,8v64c0,4.418,3.582,8,8,8h64c4.418,0,8-3.582,8-8v-64C280,227.582,276.418,224,272,224z
				 M264,288h-48v-48h48V288z"/>
			<path d="M368,224h-64c-4.418,0-8,3.582-8,8v64c0,4.418,3.582,8,8,8h64c4.418,0,8-3.582,8-8v-64C376,227.582,372.418,224,368,224z
				 M360,288h-48v-48h48V288z"/>
			<rect x="104" y="320" width="16" height="16"/>
			<rect x="136" y="320" width="48" height="16"/>
			<rect x="200" y="320" width="48" height="16"/>
			<rect x="264" y="320" width="16" height="16"/>
			<rect x="296" y="320" width="16" height="16"/>
			<rect x="328" y="320" width="48" height="16"/>
			<rect x="104" y="352" width="80" height="16"/>
			<rect x="200" y="352" width="80" height="16"/>
			<rect x="296" y="352" width="80" height="16"/>
			<rect x="104" y="384" width="80" height="16"/>
			<rect x="200" y="384" width="80" height="16"/>
			<rect x="296" y="384" width="80" height="16"/>
			<rect x="104" y="416" width="80" height="16"/>
			<rect x="200" y="416" width="80" height="16"/>
			<rect x="296" y="416" width="80" height="16"/>
		</g>
	</g>
</g>
<g>
</g>
<g>
</g>
<g>
</g>
<g>
</g>
<g>
</g>
<g>
</g>
<g>
</g>
<g>
</g>
<g>
</g>
<g>
</g>
<g>
</g>
<g>
</g>
<g>
</g>
<g>
</g>
<g>
</g>
</svg>
