<svg width="45" height="45" viewBox="0 0 45 45" fill="none" xmlns="http://www.w3.org/2000/svg">
<path d="M22.5 0C10.0737 0 0 10.0737 0 22.5C0 34.9263 10.0737 45 22.5 45C34.9263 45 45 34.9263 45 22.5C45 10.0737 34.9263 0 22.5 0ZM34.7593 19.8693C35.158 19.44 35.4407 17.5576 35.4407 17.5576C35.4407 17.5576 35.7512 19.4053 36.1728 19.845C36.6223 20.3148 38.5065 20.6257 38.5065 20.6257C38.5065 20.6257 36.6223 20.9475 36.1728 21.4029C35.7291 21.8502 35.4407 23.6911 35.4407 23.6911C35.4407 23.6911 35.1544 21.8227 34.7089 21.379C34.2652 20.9335 32.3726 20.6257 32.3726 20.6257C32.3726 20.6257 34.3035 20.3575 34.7593 19.8693ZM26.9586 15.6992C27.1917 15.4485 27.3559 14.35 27.3559 14.35C27.3559 14.35 27.5378 15.4287 27.7839 15.6852C28.0458 15.9592 29.1451 16.1406 29.1451 16.1406C29.1451 16.1406 28.0453 16.3291 27.7839 16.5946C27.5252 16.8556 27.3559 17.9298 27.3559 17.9298C27.3559 17.9298 27.1894 16.839 26.9293 16.5807C26.6706 16.3206 25.5658 16.1406 25.5658 16.1406C25.5658 16.1406 26.6931 15.9836 26.9586 15.6992ZM23.1093 39.8011C13.5545 39.8011 5.80905 32.0544 5.80905 22.5C5.80905 12.9451 13.5549 5.19885 23.1093 5.19885C23.9135 5.19885 24.6987 5.2731 25.4741 5.3784C21.924 7.8435 19.5952 11.9421 19.5952 16.5893C19.5952 24.1259 25.7035 30.2328 33.2388 30.2328C35.3749 30.2328 37.39 29.7288 39.1905 28.8535C36.6565 35.2602 30.4195 39.8011 23.1093 39.8011Z" fill="#744FC4"/>
</svg>
