<?xml version="1.0"?>
<svg xmlns="http://www.w3.org/2000/svg" viewBox="0 0 512 512" width="512" height="512"><g id="outline"><path d="M472,80H325.766l-6.177-18.53A8,8,0,0,0,312,56h-9.059a47.786,47.786,0,0,0-94.295,0H200a8,8,0,0,0-7.589,5.47L186.234,80H40a24.028,24.028,0,0,0-24,24V376a24.028,24.028,0,0,0,24,24H182.938l-6,48H174a22.025,22.025,0,0,0-22,22v18a8,8,0,0,0,8,8H352a8,8,0,0,0,8-8V470a22.025,22.025,0,0,0-22-22h-2.938l-6-48H472a24.028,24.028,0,0,0,24-24V104A24.028,24.028,0,0,0,472,80ZM302.867,72h3.367l2.667,8h-8.148A47.482,47.482,0,0,0,302.867,72ZM255.793,32A31.794,31.794,0,1,1,224,63.793,31.829,31.829,0,0,1,255.793,32ZM256,416a16.019,16.019,0,0,1-16-16h32A16.019,16.019,0,0,1,256,416Zm32-16h24.938l6,48H193.062l6-48H224a32,32,0,0,0,64,0ZM205.766,72h2.954a47.293,47.293,0,0,0,2.114,8H203.1ZM32,104a8.009,8.009,0,0,1,8-8H220.515A47.752,47.752,0,0,0,248,110.941V232H192V221.6a29.835,29.835,0,0,0-16.583-26.833l-10.435-5.217A31.805,31.805,0,0,0,168,176V160a32,32,0,0,0-64,0v16a31.8,31.8,0,0,0,3.018,13.546l-10.435,5.218A29.835,29.835,0,0,0,80,221.6V232H32Zm96.931,64.479L152,174.246V176a16,16,0,0,1-32,0v-3.056Zm-7.963-13.907a15.976,15.976,0,0,1,30.849,3.136l-21.877-5.469a7.979,7.979,0,0,0-5.518.606ZM136,208a31.811,31.811,0,0,0,18.41-5.851l13.851,6.925A13.925,13.925,0,0,1,176,221.6V232H96V221.6a13.925,13.925,0,0,1,7.739-12.523l13.85-6.925A31.812,31.812,0,0,0,136,208Zm40,176H96V373.6a13.925,13.925,0,0,1,7.739-12.523l13.85-6.925a31.89,31.89,0,0,0,36.821,0l13.851,6.925A13.925,13.925,0,0,1,176,373.6Zm-40-88a16.012,16.012,0,0,1,15.032,10.572l-3.454-1.727A7.994,7.994,0,0,0,144,304H128a7.994,7.994,0,0,0-3.578.845l-3.454,1.727A16.012,16.012,0,0,1,136,296Zm-8-16a8,8,0,1,1,15.931,1,32.074,32.074,0,0,0-15.858,0A8.036,8.036,0,0,1,128,280Zm1.889,40h12.222L152,324.944V328a16,16,0,0,1-32,0v-3.056Zm45.528,26.764-10.435-5.217A31.805,31.805,0,0,0,168,328V312a31.9,31.9,0,0,0-9.76-22.976,24,24,0,1,0-44.476,0A31.9,31.9,0,0,0,104,312v16a31.8,31.8,0,0,0,3.018,13.546l-10.435,5.218A29.835,29.835,0,0,0,80,373.6V384H40a8.009,8.009,0,0,1-8-8V248H248V384H192V373.6A29.835,29.835,0,0,0,175.417,346.764ZM338,464a6.006,6.006,0,0,1,6,6v10H168V470a6.006,6.006,0,0,1,6-6Zm70-80H328V373.6a13.926,13.926,0,0,1,7.738-12.523l13.852-6.925a31.89,31.89,0,0,0,36.821,0l13.85,6.925A13.925,13.925,0,0,1,408,373.6Zm-28.422-79.155A7.994,7.994,0,0,0,376,304H360a7.994,7.994,0,0,0-3.578.845l-8.844,4.422-6.065-12.129A11.725,11.725,0,0,1,360.291,283.6l2.052,2.053a8,8,0,0,0,9.235,1.5l1.8-.9a14.032,14.032,0,0,1,17.95,20.334l-2.064,3.1Zm4.422,20.1V328a16,16,0,0,1-32,0v-3.056L361.889,320h12.222ZM480,376a8.009,8.009,0,0,1-8,8H424V373.6a29.835,29.835,0,0,0-16.583-26.833l-10.435-5.218A31.8,31.8,0,0,0,400,328v-5.578l4.638-6.956a30.034,30.034,0,0,0-35.008-44.972,27.726,27.726,0,0,0-42.427,33.8l8.8,17.6V328a31.805,31.805,0,0,0,3.018,13.547l-10.435,5.217A29.835,29.835,0,0,0,312,373.6V384H264V248H480ZM384,176a16,16,0,0,1-32,0Zm-32-16a16,16,0,0,1,32,0Zm16,48a31.811,31.811,0,0,0,18.41-5.851l13.851,6.925A13.925,13.925,0,0,1,408,221.6V232H328V221.6a13.926,13.926,0,0,1,7.738-12.523l13.852-6.925A31.811,31.811,0,0,0,368,208Zm112,24H424V221.6a29.835,29.835,0,0,0-16.583-26.833l-10.435-5.217A31.805,31.805,0,0,0,400,176V160a32,32,0,0,0-64,0H320a8,8,0,0,0,0,16h16a31.805,31.805,0,0,0,3.018,13.547l-10.435,5.217A29.835,29.835,0,0,0,312,221.6V232H264V110.867A47.762,47.762,0,0,0,291.072,96H472a8.009,8.009,0,0,1,8,8Z"/><path d="M192,160h32a8,8,0,0,0,8-8V120a8,8,0,0,0-8-8H192a8,8,0,0,0-8,8v32A8,8,0,0,0,192,160Zm8-32h16v16H200Z"/><path d="M416,304a8,8,0,0,0,8,8h32a8,8,0,0,0,8-8V272a8,8,0,0,0-8-8H424a8,8,0,0,0-8,8Zm16-24h16v16H432Z"/><path d="M208,312a24,24,0,1,0-24-24A24.027,24.027,0,0,0,208,312Zm0-32a8,8,0,1,1-8,8A8.009,8.009,0,0,1,208,280Z"/><path d="M440,112a24,24,0,1,0,24,24A24.027,24.027,0,0,0,440,112Zm0,32a8,8,0,1,1,8-8A8.009,8.009,0,0,1,440,144Z"/><circle cx="256" cy="64" r="16"/></g></svg>
