<svg height="512" viewBox="0 0 512 512" width="512" xmlns="http://www.w3.org/2000/svg"><g id="flat"><path d="m320 88h-128l8-24h112z" fill="#cbcbcb"/><rect fill="#27c5a7" height="304" rx="16" width="464" x="24" y="88"/><path d="m256 240h-232v136a16 16 0 0 0 16 16h216z" fill="#6ee7f5"/><path d="m256 240h232v136a16 16 0 0 1 -16 16h-216z" fill="#fbb540"/><path d="m256 240h232v-136a16 16 0 0 0 -16-16h-216z" fill="#43dcfe"/><path d="m120 192-19.839 9.919a22 22 0 0 0 -12.161 19.681v18.4h96v-18.4a22 22 0 0 0 -12.161-19.678l-19.839-9.922z" fill="#02a437"/><path d="m120 344-19.839 9.919a22 22 0 0 0 -12.161 19.681v18.4h96v-18.4a22 22 0 0 0 -12.161-19.678l-19.839-9.922z" fill="#0bafea"/><path d="m352 192-19.839 9.919a22 22 0 0 0 -12.161 19.681v18.4h96v-18.4a22 22 0 0 0 -12.161-19.678l-19.839-9.922z" fill="#e82f3e"/><path d="m352 344-19.839 9.919a22 22 0 0 0 -12.161 19.681v18.4h96v-18.4a22 22 0 0 0 -12.161-19.678l-19.839-9.922z" fill="#dc651e"/><path d="m174 456h164a14 14 0 0 1 14 14v18a0 0 0 0 1 0 0h-192a0 0 0 0 1 0 0v-18a14 14 0 0 1 14-14z" fill="#eaeae8"/><path d="m320 392h-41.366a24 24 0 1 1 -45.268 0h-41.366l-8 64h144z" fill="#cbcbcb"/><rect fill="#fdc9a6" height="64" rx="24" width="48" x="112" y="136"/><path d="m112 168 16-8 32 8v-8a24 24 0 0 0 -24-24 24 24 0 0 0 -24 24z" fill="#ea9d2d"/><rect fill="#fdc9a6" height="64" rx="24" width="48" x="112" y="288"/><path d="m112 320 16-8h16l16 8v-8a24 24 0 0 0 -24-24 24 24 0 0 0 -24 24z" fill="#683b0d"/><circle cx="136" cy="280" fill="#683b0d" r="16"/><rect fill="#fdc9a6" height="64" rx="24" width="48" x="344" y="136"/><rect fill="#fdc9a6" height="64" rx="24" width="48" x="344" y="288"/><path d="m392 320-16-8h-16l-16 8-9.642-19.284a19.724 19.724 0 0 1 3.695-22.769 19.724 19.724 0 0 1 27.894 0l2.053 2.053 1.8-.9a22.031 22.031 0 0 1 25.431 4.126 22.03 22.03 0 0 1 2.752 27.8z" fill="#683b0d"/><path d="m192 120h32v32h-32z" fill="#02a437"/><path d="m424 272h32v32h-32z" fill="#dc651e"/><circle cx="208" cy="288" fill="#0bafea" r="16"/><circle cx="440" cy="136" fill="#e82f3e" r="16"/><circle cx="255.793" cy="63.793" fill="#eaeae8" r="39.793"/><circle cx="256" cy="64" fill="#0a9acd" r="16"/><circle cx="256" cy="64" fill="#0bafea" r="8"/><path d="m368 136a24 24 0 0 1 24 24v8a0 0 0 0 1 0 0h-48a0 0 0 0 1 0 0v-8a24 24 0 0 1 24-24z" fill="#ea9d2d"/><path d="m392 176h-72a8 8 0 0 1 0-16h72a8 8 0 0 1 0 16z" fill="#683b0d"/></g></svg>