<?xml version="1.0" encoding="iso-8859-1"?>
<!-- Generator: Adobe Illustrator 19.0.0, SVG Export Plug-In . SVG Version: 6.00 Build 0)  -->
<svg version="1.1" id="Layer_1" xmlns="http://www.w3.org/2000/svg" xmlns:xlink="http://www.w3.org/1999/xlink" x="0px" y="0px"
	 viewBox="0 0 512.001 512.001" style="enable-background:new 0 0 512.001 512.001;" xml:space="preserve">
<g>
	<g>
		<path d="M473.386,63.401c-49.35-49.349-131.598-49.349-180.946,0L5.483,350.358C1.827,354.013,0,359.496,0,364.979
			s1.827,9.139,5.483,12.795l102.354,102.354c7.311,7.311,18.277,7.311,25.588,0L394.793,218.76c7.311-7.311,7.311-18.277,0-25.588
			l-51.177-51.177c-7.311-7.311-18.277-7.311-25.588,0L109.665,350.358c-7.311,7.311-7.311,18.277,0,25.588s18.277,7.311,25.588,0
			l195.568-195.568l25.588,25.588L120.631,439.918l-76.765-74.938L318.028,90.818c36.555-36.555,93.215-36.555,129.77,0
			c34.727,36.555,34.727,93.216,0,129.77L213.847,452.711c-7.311,7.311-7.311,18.277,0,25.588c3.656,3.656,9.139,5.483,12.794,5.483
			c3.654,0,9.139-1.828,12.794-5.483l235.78-235.78C524.563,194.999,524.563,112.751,473.386,63.401z"/>
	</g>
</g>
<g>
</g>
<g>
</g>
<g>
</g>
<g>
</g>
<g>
</g>
<g>
</g>
<g>
</g>
<g>
</g>
<g>
</g>
<g>
</g>
<g>
</g>
<g>
</g>
<g>
</g>
<g>
</g>
<g>
</g>
</svg>
