<svg id="Filled" height="512" viewBox="0 0 512 512" width="512" xmlns="http://www.w3.org/2000/svg"><rect fill="#f7cc38" height="336" rx="32" width="416" x="72" y="152"/><path d="m440 104v304a32 32 0 0 1 -32 32h-256a32 32 0 0 1 -32-32v-352a32 32 0 0 1 32-32h208z" fill="#e9eef2"/><path d="m424 488h-368a32 32 0 0 1 -32-32v-320a32 32 0 0 1 32-32h96a32 32 0 0 1 32 32v64h176a32 32 0 0 1 32 32v224a32 32 0 0 0 32 32" fill="#fbe36a"/><path d="m440 104h-48a32 32 0 0 1 -32-32v-48z" fill="#c3c6c7"/><path d="m184 264-56 64h32v96h48v-96h32z" fill="#f79539"/><path d="m56 496h400a40.045 40.045 0 0 0 40-40v-272a40.045 40.045 0 0 0 -40-40h-8v-40a8 8 0 0 0 -2.343-5.657l-80-80a8 8 0 0 0 -5.657-2.343h-208a40.045 40.045 0 0 0 -40 40v40h-56a40.045 40.045 0 0 0 -40 40v320a40.045 40.045 0 0 0 40 40zm400-336a24.028 24.028 0 0 1 24 24v272a24.028 24.028 0 0 1 -24 24h-32a24.028 24.028 0 0 1 -24-24v-8h8a40.045 40.045 0 0 0 40-40v-248zm-88-116.687 52.687 52.687h-28.687a24.027 24.027 0 0 1 -24-24zm-240 12.687a24.027 24.027 0 0 1 24-24h200v40a40.045 40.045 0 0 0 40 40h40v296a24.027 24.027 0 0 1 -24 24h-8v-200a40.045 40.045 0 0 0 -40-40h-168v-56a40.045 40.045 0 0 0 -40-40h-24zm-96 80a24.028 24.028 0 0 1 24-24h96a24.028 24.028 0 0 1 24 24v64a8 8 0 0 0 8 8h176a24.028 24.028 0 0 1 24 24v224a39.792 39.792 0 0 0 8.019 24h-336.019a24.028 24.028 0 0 1 -24-24z"/><path d="m272 152a8 8 0 0 0 8 8h112a8 8 0 0 0 0-16h-112a8 8 0 0 0 -8 8z"/><path d="m224 112h56a8 8 0 0 0 0-16h-56a8 8 0 0 0 0 16z"/><path d="m248 144h-16a8 8 0 0 0 0 16h16a8 8 0 0 0 0-16z"/><path d="m128 336h24v88a8 8 0 0 0 8 8h48a8 8 0 0 0 8-8v-88h24a8 8 0 0 0 6.021-13.268l-56-64a8 8 0 0 0 -12.042 0l-56 64a8 8 0 0 0 6.021 13.268zm56-59.851 38.37 43.851h-14.37a8 8 0 0 0 -8 8v88h-32v-88a8 8 0 0 0 -8-8h-14.37z"/></svg>