<?xml version="1.0" encoding="iso-8859-1"?>
<!-- Generator: Adobe Illustrator 19.0.0, SVG Export Plug-In . SVG Version: 6.00 Build 0)  -->
<svg version="1.1" id="Capa_1" xmlns="http://www.w3.org/2000/svg" xmlns:xlink="http://www.w3.org/1999/xlink" x="0px" y="0px"
	 viewBox="0 0 512 512" style="enable-background:new 0 0 512 512;" xml:space="preserve">
<g>
	<g>
		<path d="M426.667,0H128c-23.521,0-42.667,19.135-42.667,42.667v10.667C85.333,59.229,90.104,64,96,64h53.333
			c11.771,0,21.333,9.573,21.333,21.333c0,11.76-9.563,21.333-21.333,21.333c-8.917,0-16.958-5.729-20-14.25
			c-1.5-4.25-5.541-7.083-10.041-7.083H53.333c-5.896,0-10.667,4.771-10.667,10.667s4.771,10.667,10.667,10.667h32v64
			c0,5.896,4.771,10.667,10.667,10.667h53.333c11.771,0,21.333,9.573,21.333,21.333c0,11.76-9.563,21.333-21.333,21.333
			c-8.917,0-16.958-5.729-20-14.25c-1.5-4.25-5.541-7.083-10.041-7.083H53.333c-5.896,0-10.667,4.771-10.667,10.667
			c0,5.896,4.771,10.667,10.667,10.667h32v53.333C85.333,283.229,90.104,288,96,288h53.333c11.771,0,21.333,9.573,21.333,21.333
			c0,11.76-9.563,21.333-21.333,21.333c-8.917,0-16.958-5.729-20-14.25c-1.5-4.25-5.541-7.083-10.041-7.083H53.333
			c-5.896,0-10.667,4.771-10.667,10.667s4.771,10.667,10.667,10.667h32v64c0,5.896,4.771,10.667,10.667,10.667h53.333
			c11.771,0,21.333,9.573,21.333,21.333S161.104,448,149.333,448c-8.917,0-16.958-5.729-20-14.25
			c-1.5-4.25-5.541-7.083-10.041-7.083H53.333c-5.896,0-10.667,4.771-10.667,10.667c0,5.896,4.771,10.667,10.667,10.667h32v21.333
			C85.333,492.865,104.479,512,128,512h298.667c23.521,0,42.667-19.135,42.667-42.667V42.667C469.333,19.135,450.188,0,426.667,0z
			 M405.333,160c0,3.698-1.917,7.125-5.063,9.073c-1.708,1.063-3.646,1.594-5.604,1.594c-1.625,0-3.271-0.375-4.771-1.125
			L352,150.594l-37.896,18.948c-3.313,1.635-7.25,1.458-10.375-0.469c-3.146-1.948-5.063-5.375-5.063-9.073V21.333h106.667V160z"/>
	</g>
</g>
<g>
</g>
<g>
</g>
<g>
</g>
<g>
</g>
<g>
</g>
<g>
</g>
<g>
</g>
<g>
</g>
<g>
</g>
<g>
</g>
<g>
</g>
<g>
</g>
<g>
</g>
<g>
</g>
<g>
</g>
</svg>
