<svg width="19" height="20" viewBox="0 0 19 20" fill="none" xmlns="http://www.w3.org/2000/svg">
<circle cx="9.63267" cy="10.0408" r="8.36735" stroke="#AEABAB" stroke-width="2"/>
<path d="M9.6327 10.5637C9.92153 10.5637 10.1557 10.3296 10.1557 10.0408C10.1557 9.75195 9.92153 9.51782 9.6327 9.51782C9.34387 9.51782 9.10974 9.75195 9.10974 10.0408C9.10974 10.3296 9.34387 10.5637 9.6327 10.5637Z" stroke="#AEABAB" stroke-width="2" stroke-linecap="round" stroke-linejoin="round"/>
<path d="M13.2934 10.5637C13.5822 10.5637 13.8164 10.3296 13.8164 10.0408C13.8164 9.75195 13.5822 9.51782 13.2934 9.51782C13.0046 9.51782 12.7704 9.75195 12.7704 10.0408C12.7704 10.3296 13.0046 10.5637 13.2934 10.5637Z" stroke="#AEABAB" stroke-width="2" stroke-linecap="round" stroke-linejoin="round"/>
<path d="M5.97193 10.5637C6.26075 10.5637 6.49489 10.3296 6.49489 10.0408C6.49489 9.75195 6.26075 9.51782 5.97193 9.51782C5.68311 9.51782 5.44897 9.75195 5.44897 10.0408C5.44897 10.3296 5.68311 10.5637 5.97193 10.5637Z" stroke="#AEABAB" stroke-width="2" stroke-linecap="round" stroke-linejoin="round"/>
</svg>
